<svg xmlns="http://www.w3.org/2000/svg" xmlns:xlink="http://www.w3.org/1999/xlink" version="1.1" x="0px" y="0px" width="100px" height="100px" viewBox="5.0 -10.0 100.0 135.0" enable-background="new 0 0 100 100" xml:space="preserve">
<g id="Captions">
</g>
<g id="Your_Icon">
	<path d="M67.2,67.626l-37.511,0.012c-0.808,0-1.343,0.648-1.186,1.441L34.27,98.54c0.155,0.794,0.941,1.443,1.75,1.443   l25.618,0.003c0.809-0.001,1.581-0.651,1.719-1.447l5.062-29.465C68.557,68.278,68.008,67.626,67.2,67.626z"/>
	<path d="M22.841,35.336c-0.044,0.054-1.262,1.279-0.106,2.244c0.353,0.294,0.981,0.312,1.348,0.111   c-0.143,0.421,0.003,1.015,0.356,1.31c1.193,0.997,2.129-0.446,2.183-0.511c0.595-0.713,3.194-5.546,2.149-6.417   C27.729,31.201,23.438,34.624,22.841,35.336z"/>
	<path d="M39.305,22.32c0.042-0.054,1.232-1.306,0.058-2.246c-0.358-0.286-0.987-0.292-1.351-0.081   c0.135-0.425-0.023-1.017-0.381-1.304c-1.218-0.971-2.121,0.493-2.173,0.558c-0.58,0.725-3.076,5.614-2.014,6.462   C34.506,26.558,38.725,23.045,39.305,22.32z"/>
	<path d="M29.996,39.452c0.008,0.067,0.06,1.795,1.555,1.621c0.457-0.055,0.902-0.497,1.01-0.903   c0.206,0.395,0.736,0.698,1.193,0.645c1.545-0.182,1.141-1.854,1.131-1.935c-0.108-0.923-1.828-6.137-3.178-5.978   C30.357,33.061,29.889,38.53,29.996,39.452z"/>
	<path d="M32.511,18.551c-0.008-0.066-0.061-1.796-1.556-1.62c-0.457,0.054-0.901,0.497-1.008,0.903   c-0.207-0.394-0.738-0.698-1.195-0.645c-1.545,0.182-1.142,1.854-1.133,1.935c0.108,0.923,1.83,6.136,3.181,5.978   C32.149,24.943,32.619,19.475,32.511,18.551z"/>
	<path d="M20.651,27.687c-0.068,0.009-1.797,0.061-1.621,1.555c0.054,0.458,0.496,0.903,0.903,1.009   c-0.396,0.207-0.698,0.738-0.646,1.195c0.182,1.546,1.854,1.14,1.937,1.13c0.921-0.108,6.134-1.828,5.977-3.177   C27.042,28.049,21.572,27.579,20.651,27.687z"/>
	<path d="M41.609,30.245c0.068-0.008,1.797-0.059,1.622-1.553c-0.053-0.455-0.497-0.904-0.902-1.012   c0.394-0.204,0.697-0.736,0.644-1.192c-0.181-1.546-1.854-1.142-1.936-1.132c-0.922,0.108-6.135,1.828-5.977,3.178   S40.688,30.354,41.609,30.245z"/>
	<path d="M37.801,37.199c0.055,0.04,1.325,1.215,2.244,0.024c0.282-0.364,0.277-0.991,0.062-1.354   c0.427,0.129,1.015-0.038,1.296-0.402c0.952-1.229-0.525-2.111-0.591-2.161c-0.734-0.568-5.661-2.987-6.494-1.913   C33.486,32.47,37.067,36.631,37.801,37.199z"/>
	<path d="M24.716,20.674c-0.051-0.044-1.288-1.255-2.242-0.093c-0.293,0.355-0.308,0.982-0.103,1.349   c-0.422-0.141-1.015,0.008-1.308,0.364c-0.989,1.2,0.462,2.126,0.524,2.179c0.719,0.59,5.57,3.156,6.435,2.108   C28.887,25.53,25.436,21.263,24.716,20.674z"/>
	<circle cx="31.139" cy="28.993" r="1.984"/>
	<path d="M49.349,26.046c-0.063,0.073-1.862,1.78-0.247,3.211c0.492,0.438,1.392,0.49,1.928,0.219   c-0.223,0.598-0.041,1.455,0.453,1.891c1.669,1.482,3.072-0.547,3.151-0.635c0.882-0.999,4.816-7.815,3.356-9.11   C56.534,20.328,50.233,25.052,49.349,26.046z"/>
	<path d="M73.505,8.092c0.064-0.072,1.825-1.819,0.181-3.216c-0.502-0.427-1.4-0.462-1.933-0.175   c0.212-0.602,0.011-1.458-0.491-1.885c-1.7-1.442-3.06,0.615-3.137,0.706c-0.863,1.015-4.65,7.916-3.163,9.179   C66.446,13.963,72.646,9.106,73.505,8.092z"/>
	<path d="M59.43,32.253c0.009,0.096,0.012,2.575,2.16,2.389c0.655-0.058,1.313-0.671,1.484-1.251   c0.281,0.576,1.027,1.032,1.684,0.975c2.224-0.193,1.716-2.607,1.705-2.724c-0.116-1.327-2.358-8.875-4.3-8.706   C60.22,23.104,59.314,30.926,59.43,32.253z"/>
	<path d="M63.93,2.4c-0.009-0.099-0.009-2.578-2.162-2.391c-0.653,0.056-1.312,0.674-1.482,1.251   c-0.279-0.574-1.028-1.033-1.685-0.977c-2.223,0.193-1.715,2.608-1.705,2.728c0.116,1.327,2.356,8.872,4.301,8.702   C63.138,11.545,64.045,3.728,63.93,2.4z"/>
	<path d="M46.537,14.988c-0.097,0.009-2.575,0.009-2.389,2.158c0.058,0.657,0.671,1.314,1.251,1.483   c-0.576,0.28-1.032,1.028-0.975,1.686c0.193,2.222,2.607,1.713,2.725,1.703c1.326-0.115,8.872-2.356,8.704-4.299   C55.684,15.779,47.863,14.873,46.537,14.988z"/>
	<path d="M76.475,19.553c0.096-0.008,2.577-0.009,2.39-2.158c-0.057-0.656-0.673-1.315-1.25-1.485   c0.573-0.28,1.031-1.027,0.974-1.687c-0.193-2.222-2.608-1.715-2.726-1.705c-1.328,0.115-8.874,2.36-8.705,4.303   C67.326,18.761,75.146,19.668,76.475,19.553z"/>
	<path d="M70.714,29.358c0.076,0.061,1.848,1.796,3.218,0.13c0.419-0.509,0.439-1.408,0.147-1.936   c0.605,0.2,1.455-0.014,1.873-0.523c1.418-1.723-0.663-3.05-0.756-3.123c-1.025-0.846-7.986-4.525-9.225-3.019   C64.73,22.393,69.685,28.51,70.714,29.358z"/>
	<path d="M52.666,5.106c-0.071-0.065-1.793-1.853-3.213-0.228c-0.434,0.495-0.479,1.394-0.202,1.93   C48.65,6.59,47.793,6.776,47.36,7.275c-1.471,1.678,0.572,3.067,0.66,3.146c1.002,0.877,7.85,4.764,9.132,3.297   C58.437,12.247,53.67,5.981,52.666,5.106z"/>
	<circle cx="61.516" cy="17.307" r="2.845"/>
	<path d="M72.922,53.218c0-0.808-0.66-1.468-1.469-1.468l-17.118,0.004c-0.023-1.461,0.046-2.869,0.208-4.261   c8.374,2.311,10.689-5.495,10.689-5.495c-1.857-1.318-7.85-1.3-10.295,2.944c0.445-2.337,1.115-4.711,1.965-7.324   c0.341-1.051-0.233-2.179-1.284-2.521c-1.052-0.34-2.179,0.357-2.521,1.406C51.338,41.919,50.263,46,50.337,52h-3.821   c-1.431-4-3.802-7.537-5.446-9.618c-0.685-0.866-1.943-1.075-2.81-0.39c-0.866,0.684-1.014,1.911-0.329,2.778   c1.842,2.331,3.291,4.707,4.283,7.003L25.43,51.77c-0.809,0.001-1.47,0.658-1.47,1.466l0.003,9.116c0,0.808,0.662,1.467,1.47,1.467   l46.025-0.014c0.808,0,1.468-0.662,1.468-1.469L72.922,53.218z"/>
</g>
<g id="Layer_4" display="none">
</g>
<g id="working_layer" display="none">
</g>
<text x="0.0" y="117.5" font-size="5.0" font-weight="bold" font-family="Helvetica Neue, Helvetica, Arial-Unicode, Arial, Sans-serif" fill="#000000">Created by Gemma Garner</text><text x="0.0" y="122.5" font-size="5.0" font-weight="bold" font-family="Helvetica Neue, Helvetica, Arial-Unicode, Arial, Sans-serif" fill="#000000">from the Noun Project</text></svg>