<svg xmlns="http://www.w3.org/2000/svg" xmlns:xlink="http://www.w3.org/1999/xlink" version="1.1" x="0px" y="0px" viewBox="0 0 1000 1250" enable-background="new 0 0 1000 1000" xml:space="preserve"><path d="M876.5,662.5"/><g><g><path d="M500.128,465.984c17.688,0,32-14.328,32-32V172c0-17.672-14.312-32-32-32c-17.656,0-32,14.328-32,32v261.984    C468.128,451.656,482.472,465.984,500.128,465.984z"/></g><g><path d="M685.565,274.016c-14.438-10.203-34.422-6.734-44.594,7.719s-6.719,34.422,7.734,44.594    c68.812,48.484,109.891,127.438,109.891,211.219C758.597,680.062,642.659,796,500.128,796    c-142.5,0-258.438-115.938-258.438-258.453c0-83.766,41.062-162.734,109.875-211.219c14.453-10.172,17.906-30.141,7.719-44.594    c-10.156-14.453-30.125-17.906-44.578-7.719C228.909,334.469,177.69,432.984,177.69,537.547    C177.69,715.344,322.331,860,500.128,860c177.812,0,322.469-144.656,322.469-322.453    C822.597,432.984,771.378,334.469,685.565,274.016z"/></g></g><text x="0" y="1015" fill="#000000" font-size="5px" font-weight="bold" font-family="'Helvetica Neue', Helvetica, Arial-Unicode, Arial, Sans-serif">Created by Kirill Zorenkov</text><text x="0" y="1020" fill="#000000" font-size="5px" font-weight="bold" font-family="'Helvetica Neue', Helvetica, Arial-Unicode, Arial, Sans-serif">from the Noun Project</text></svg>